/vscmnt/brussel_pixiu_data/_data_brussel/112/vsc11236/PredSimResults/SUBJ09mtu3D/worker2.mot
version=1
nRows=4
nColumns=50
inDegrees=yes
endheader
                time	         pelvis_tilt	         pelvis_list	     pelvis_rotation	           pelvis_tx	           pelvis_ty	           pelvis_tz	       hip_flexion_r	     hip_adduction_r	      hip_rotation_r	        knee_angle_r	       ankle_angle_r	         mtp_angle_r	       hip_flexion_l	     hip_adduction_l	      hip_rotation_l	        knee_angle_l	       ankle_angle_l	         mtp_angle_l	    lumbar_extension	      lumbar_bending	     lumbar_rotation	 ercspn_r/activation	 intobl_r/activation	 extobl_r/activation	    abd_r/activation	    add_r/activation	hamstrings_r/activation	bifemsh_r/activation	glut_max_r/activation	iliopsoas_r/activation	rect_fem_r/activation	  vasti_r/activation	gastroc_r/activation	 soleus_r/activation	tib_ant_r/activation	 ercspn_l/activation	 intobl_l/activation	 extobl_l/activation	    abd_l/activation	    add_l/activation	hamstrings_l/activation	bifemsh_l/activation	glut_max_l/activation	iliopsoas_l/activation	rect_fem_l/activation	  vasti_l/activation	gastroc_l/activation	 soleus_l/activation	tib_ant_l/activation	
          0.62022542	         -3.25285903	          2.11005034	         -8.00172959	          0.76907952	          0.98723586	          0.00574858	        -13.14954470	         -3.78593636	         -4.47823087	        -12.96230586	          8.27967920	         33.17903414	         28.35721639	         -0.47106352	         -8.42733752	         -6.24676705	          5.25495713	          0.24191707	        -13.99956568	         -0.58024852	          3.15757856	          0.01072665	          0.01000767	          0.01739684	          0.02397873	          0.02129132	          0.05434411	          0.19687804	          0.02120367	          0.01001138	          0.01000277	          0.01000140	          0.17754747	          0.27775215	          0.01000018	          0.01112378	          0.14349581	          0.05084434	          0.02831649	          0.20760900	          0.06637833	          0.15922544	          0.07732217	          0.11879022	          0.02212465	          0.01000079	          0.01758809	          0.01456214	          0.30138451	
          0.63262993	         -3.25228262	          2.13474938	         -7.92019376	          0.78905298	          0.98521771	          0.00522823	        -13.90660628	         -3.99124965	         -5.00371508	        -13.62183709	          7.02612015	         34.91254546	         28.15854643	         -0.34174171	         -8.40541749	         -7.93758325	          4.92499885	          0.20838864	        -13.52460002	         -0.95274362	          3.24320447	          0.01000281	          0.01000070	          0.01441969	          0.01987068	          0.01764405	          0.04505656	          0.17911600	          0.01757110	          0.01000373	          0.01000155	          0.01000094	          0.14712996	          0.24865097	          0.01000014	          0.01000182	          0.11891213	          0.04213362	          0.11497628	          0.18773405	          0.06996656	          0.13194760	          0.11122732	          0.09843886	          0.01833571	          0.01000033	          0.01457572	          0.01206763	          0.33768875	
          0.64503444	         -3.23867309	          2.15721698	         -7.80225124	          0.80919497	          0.98356380	          0.00463951	        -14.44268220	         -4.21057892	         -5.54731858	        -14.69763015	          5.61923188	         36.60552086	         27.89732792	         -0.20987662	         -8.36958847	         -9.52592456	          4.40299445	          0.20131244	        -13.04114566	         -1.32690450	          3.30873830	          0.03702752	          0.01000053	          0.01195006	          0.01646642	          0.01462250	          0.03735416	          0.14843497	          0.01456087	          0.01856591	          0.01000186	          0.01000070	          0.12192344	          0.20605248	          0.01000015	          0.01000857	          0.09853995	          0.03491524	          0.17809240	          0.19853611	          0.06422542	          0.10934267	          0.14765828	          0.08157413	          0.01519631	          0.01000036	          0.01207890	          0.01000044	          0.37342946	
          0.65743894	         -3.21402961	          2.17192490	         -7.64952378	          0.82915894	          0.98248398	          0.00397822	        -14.64924109	         -4.44758246	         -6.09421161	        -16.33701073	          4.06857559	         38.13468594	         27.72886081	         -0.09030174	         -8.33939177	        -11.28078842	          3.91418051	          0.16727843	        -12.58836069	         -1.69740786	          3.35106836	          0.05364786	          0.01000082	          0.01000132	          0.01364539	          0.06405306	          0.03099264	          0.12300786	          0.01206640	          0.09963906	          0.01000157	          0.01000065	          0.10103532	          0.17075118	          0.01000014	          0.01004379	          0.08165795	          0.02893352	          0.22247553	          0.25690884	          0.05861654	          0.09061032	          0.16786241	          0.06759871	          0.01259575	          0.04161893	          0.01001088	          0.01000193	          0.39277810	
